<svg xmlns="http://www.w3.org/2000/svg" width="31" height="30" viewBox="0 0 31 30"><path fill="#000" fill-rule="evenodd" d="M331.492 256c-8.268 0-14.992 6.727-14.992 14.996 0 8.268 6.725 14.992 14.992 14.992 8.267 0 14.998-6.725 14.998-14.992 0-8.269-6.73-14.996-14.998-14.996zm0 28.912c-7.674 0-13.916-6.24-13.916-13.916s6.242-13.92 13.916-13.92c7.676 0 13.922 6.244 13.922 13.92s-6.246 13.916-13.922 13.916zm6.76-15.336l-9.387-5.211c-1.279-.711-2.504.043-2.504 1.475v10.309c0 1.053.605 1.762 1.504 1.762.324 0 .662-.096 1.002-.285l9.385-5.213c.621-.344.979-.861.979-1.416 0-.555-.358-1.073-.979-1.421zm-.523 1.895l-9.383 5.213c-.178.098-.342.15-.48.15-.371 0-.428-.428-.428-.686V265.84c0-.256.057-.684.428-.684.139 0 .303.053.48.15l9.383 5.211c.262.146.426.33.426.479-.001.147-.165.33-.426.475z" transform="translate(-316 -256)"/></svg>